<svg width="193" height="175" viewBox="0 0 193 175" fill="none" xmlns="http://www.w3.org/2000/svg">
<path d="M143.282 83.1474C143.282 86.7378 140.428 89.7086 136.668 90.3282C136.206 90.4011 135.723 90.4375 135.241 90.4375C133.15 90.4375 131.26 89.7266 129.832 88.5422C129.813 88.5422 129.813 88.5238 129.813 88.5238L129.33 88.0863C129.31 88.0863 129.31 88.0683 129.31 88.0683L128.686 87.5031L128.365 86.9019L127.822 85.9356L121.49 74.4539L114.815 62.3705L107.235 48.6284L103.697 42.2313L96.4998 29.1638L89.3024 42.2133L85.7643 48.6104L78.2049 62.3521L71.5303 74.4539L65.1373 86.0269L64.7152 86.7922C64.7152 86.7922 64.7152 86.7922 64.7152 86.8106L64.3334 87.5031L63.5693 88.1956C63.5489 88.214 63.5291 88.232 63.5088 88.2504C63.4487 88.3053 63.4086 88.3597 63.3481 88.3961C63.3278 88.4145 63.3079 88.4325 63.2876 88.451C61.8401 89.7086 59.8903 90.4555 57.7391 90.4555C57.2566 90.4555 56.7741 90.4191 56.3114 90.3462C52.5521 89.745 49.6973 86.7558 49.6973 83.1654C49.6973 82.4549 49.8178 81.762 50.0191 81.106C50.1197 80.8146 50.2199 80.5228 50.3608 80.2494L50.6424 79.6846L66.2228 51.49L73.8024 37.7479L81.9647 22.9307C84.5379 18.0099 90.0864 14.5835 96.4998 14.5835C102.913 14.5835 108.462 17.9916 111.035 22.9307L119.198 37.7479L126.777 51.49L141.996 79.065L142.016 79.1014L142.579 80.1766C142.739 80.4864 142.86 80.7782 142.961 81.106C143.182 81.762 143.282 82.4365 143.282 83.1474Z" fill="#DF6756"/>
<path d="M144.75 87.4851C144.75 91.5126 142.961 95.1579 140.046 97.8005C137.131 100.443 133.11 102.065 128.667 102.065C124.264 102.065 120.283 100.461 117.388 97.8733L117.348 97.8369L117.207 97.7096L96.5 78.9373L75.632 97.8917C72.737 100.479 68.7362 102.083 64.3535 102.083C59.9103 102.083 55.8897 100.443 52.9743 97.8189C50.0595 95.1579 48.25 91.5126 48.25 87.4851C48.25 85.0246 48.9135 82.7099 50.1195 80.6689C50.2003 80.5228 50.3005 80.3771 50.3808 80.2314C50.2405 80.5048 50.1398 80.7962 50.0392 81.088C49.8383 81.744 49.7178 82.4365 49.7178 83.1474C49.7178 86.7378 52.5722 89.7086 56.332 90.3282C56.7942 90.4011 57.2767 90.4375 57.7592 90.4375C59.9103 90.4375 61.8607 89.6722 63.3082 88.4325C63.328 88.4145 63.3483 88.3961 63.3682 88.3781C63.4287 88.3233 63.4891 88.2868 63.5293 88.2324C63.5492 88.214 63.5695 88.196 63.5893 88.1776L64.3535 87.4851L75.7322 77.1693L85.161 68.6219L96.5402 58.3062L107.919 68.6219L117.348 77.1693L128.727 87.4851L129.35 88.0499C129.35 88.0683 129.37 88.0683 129.37 88.0683C129.531 88.2324 129.692 88.3781 129.853 88.5058L129.873 88.5238C131.3 89.7086 133.19 90.4195 135.281 90.4195C135.763 90.4195 136.246 90.3826 136.708 90.3098C140.468 89.6902 143.323 86.7194 143.323 83.1289C143.323 82.4185 143.202 81.7256 143.001 81.088C142.9 80.7597 142.78 80.4684 142.619 80.1585C142.719 80.3222 142.84 80.4864 142.921 80.6689C144.087 82.7099 144.75 85.0246 144.75 87.4851Z" fill="#DF6756"/>
<path d="M26.7908 159.85C24.8847 159.85 23.0976 159.486 21.4744 158.784C19.8214 158.069 18.496 157.003 17.5429 155.627C16.5749 154.237 16.0835 152.632 16.0835 150.837C16.0835 147.882 17.3791 145.494 19.9554 143.74C22.4722 142.013 26.1803 141.149 30.9606 141.149H37.9003C37.8853 138.869 37.2748 137.223 36.0685 136.252C34.8325 135.253 32.8519 134.741 30.1415 134.741C28.6076 134.741 27.2376 134.849 26.0611 135.064C24.8698 135.28 23.5146 135.618 22.0552 136.063L22.0105 136.076C21.6382 136.157 21.3255 136.211 21.0574 136.211C20.283 136.211 19.598 135.955 19.0321 135.428C18.4662 134.916 18.1833 134.282 18.1833 133.526C18.1833 132.298 18.8683 131.394 20.149 130.895C23.7231 129.519 27.4163 128.817 31.1244 128.817C34.073 128.817 36.6047 129.37 38.6597 130.477C40.7148 131.583 42.2487 133.027 43.2316 134.795C44.1995 136.535 44.691 138.451 44.691 140.488V156.76C44.691 157.624 44.3485 158.366 43.6783 158.946C43.0082 159.526 42.1891 159.823 41.2509 159.823C40.3128 159.823 39.4937 159.526 38.8533 158.932C38.1981 158.339 37.8705 157.34 37.8705 156.477V156.234C34.892 158.636 31.1691 159.85 26.7908 159.85ZM31.7052 146.344C25.8675 146.344 22.904 147.666 22.904 150.284C22.904 151.498 23.3359 152.443 24.2294 153.171C25.1229 153.914 26.7015 154.278 28.9055 154.278C30.6181 154.278 32.3158 153.886 33.9241 153.117C35.4878 152.375 36.8131 151.444 37.9003 150.365V146.344H31.7052Z" fill="#DF6756"/>
<path d="M64.5125 159.816C61.8466 159.816 59.3002 159.195 56.9177 157.967C54.5347 156.739 52.5839 154.918 51.1097 152.57C49.6354 150.223 48.8906 147.443 48.8906 144.313C48.8906 141.183 49.6354 138.403 51.1097 136.056C52.5839 133.708 54.5347 131.887 56.9177 130.659C59.3002 129.431 61.8466 128.81 64.5125 128.81C68.2802 128.81 71.6457 130.011 74.5647 132.386V119.783C74.5647 118.88 74.9068 118.124 75.5773 117.544C76.2472 116.964 77.0663 116.667 78.0045 116.667C78.9575 116.667 79.7619 116.977 80.417 117.598C81.0574 118.205 81.3848 118.947 81.3848 119.797V156.767C81.3848 157.63 81.0574 158.359 80.4023 158.953C79.7471 159.546 78.9428 159.843 78.0045 159.843C77.0663 159.843 76.2472 159.546 75.5773 158.966C74.9068 158.372 74.5647 157.36 74.5647 156.497V156.281C71.6605 158.615 68.2802 159.816 64.5125 159.816ZM65.3164 134.666C62.3831 134.666 60.1045 135.475 58.3472 137.162C56.6046 138.822 55.7112 141.223 55.7112 144.313C55.7112 147.403 56.6046 149.804 58.3472 151.464C60.1193 153.137 62.3979 153.96 65.3164 153.96C67.1185 153.96 68.8458 153.596 70.4244 152.854C71.9583 152.139 73.3582 151.194 74.5495 150.034V138.579C73.3582 137.418 71.9583 136.474 70.4244 135.759C68.8458 135.03 67.1333 134.666 65.3164 134.666Z" fill="#DF6756"/>
<path d="M89.8734 128.823C88.9199 128.823 88.1161 129.133 87.4609 129.754C86.8205 130.361 86.4927 131.103 86.4927 131.953V156.766C86.4927 157.63 86.8205 158.358 87.4757 158.952C88.1309 159.546 88.9352 159.843 89.8734 159.843C90.8116 159.843 91.6307 159.546 92.3007 158.966C92.9706 158.372 93.3132 157.643 93.3132 156.78V131.953C93.3132 131.063 92.9859 130.307 92.3302 129.714C91.6903 129.12 90.8559 128.823 89.8734 128.823Z" fill="#DF6756"/>
<path d="M92.6432 117.625C91.9433 116.991 91.0794 116.667 90.0968 116.667H89.7395C88.7565 116.667 87.8926 116.991 87.1926 117.625C86.4926 118.259 86.1353 119.042 86.1353 119.932V120.148C86.1353 121.038 86.4926 121.821 87.1926 122.455C87.8926 123.089 88.7565 123.413 89.7395 123.413H90.0968C91.0794 123.413 91.9433 123.089 92.6432 122.455C93.3432 121.821 93.7006 121.038 93.7006 120.148V119.932C93.7006 119.042 93.3432 118.273 92.6432 117.625Z" fill="#DF6756"/>
<path d="M113.492 159.816C110.826 159.816 108.28 159.195 105.897 157.967C103.514 156.739 101.563 154.918 100.089 152.57C98.6149 150.223 97.8701 147.443 97.8701 144.313C97.8701 141.183 98.6149 138.403 100.089 136.056C101.563 133.708 103.514 131.887 105.897 130.659C108.28 129.431 110.826 128.81 113.492 128.81C117.26 128.81 120.625 130.011 123.544 132.386V119.783C123.544 118.88 123.886 118.124 124.557 117.544C125.227 116.964 126.046 116.667 126.984 116.667C127.937 116.667 128.741 116.977 129.397 117.598C130.037 118.205 130.365 118.947 130.365 119.797V156.767C130.365 157.63 130.037 158.359 129.382 158.953C128.727 159.546 127.922 159.843 126.984 159.843C126.046 159.843 125.227 159.546 124.557 158.966C123.886 158.372 123.544 157.36 123.544 156.497V156.281C120.625 158.615 117.26 159.816 113.492 159.816ZM114.296 134.666C111.363 134.666 109.084 135.475 107.327 137.162C105.584 138.822 104.691 141.223 104.691 144.313C104.691 147.403 105.584 149.804 107.327 151.464C109.099 153.137 111.377 153.96 114.296 153.96C116.098 153.96 117.825 153.596 119.404 152.854C120.938 152.139 122.338 151.194 123.529 150.034V138.579C122.338 137.418 120.938 136.474 119.404 135.759C117.825 135.03 116.098 134.666 114.296 134.666Z" fill="#DF6756"/>
<path d="M161.176 159.87C160.238 159.87 159.418 159.573 158.778 158.979C158.123 158.386 157.795 157.657 157.795 156.793V141.021C157.795 136.73 155.755 134.652 151.541 134.652C149.59 134.652 147.832 135.111 146.299 136.029C144.765 136.946 143.306 138.187 141.935 139.726V156.78C141.935 157.644 141.593 158.386 140.923 158.966C140.253 159.546 139.434 159.843 138.495 159.843C137.557 159.843 136.738 159.546 136.098 158.953C135.443 158.359 135.115 157.63 135.115 156.767V119.797C135.115 118.947 135.443 118.205 136.083 117.598C136.738 116.991 137.542 116.667 138.495 116.667C139.434 116.667 140.253 116.977 140.923 117.584C141.593 118.191 141.935 118.934 141.935 119.797V133.235C143.261 132.048 144.676 131.063 146.165 130.308C148.071 129.323 150.335 128.824 152.911 128.824C155.293 128.824 157.393 129.35 159.165 130.375C160.923 131.4 162.293 132.831 163.231 134.612C164.154 136.366 164.631 138.336 164.631 140.441V156.78C164.631 157.644 164.288 158.386 163.618 158.966C162.933 159.573 162.114 159.87 161.176 159.87Z" fill="#DF6756"/>
<path d="M173.104 128.81C172.151 128.81 171.347 129.12 170.692 129.741C170.051 130.348 169.724 131.09 169.724 131.94V156.753C169.724 157.616 170.051 158.345 170.707 158.939C171.362 159.533 172.166 159.829 173.104 159.829C174.043 159.829 174.862 159.533 175.532 158.952C176.202 158.359 176.544 157.63 176.544 156.767V131.94C176.544 131.049 176.217 130.294 175.562 129.701C174.906 129.107 174.087 128.81 173.104 128.81Z" fill="#DF6756"/>
<path d="M175.86 117.625C175.16 116.991 174.296 116.667 173.313 116.667H172.955C171.973 116.667 171.109 116.991 170.409 117.625C169.709 118.259 169.352 119.042 169.352 119.932V120.148C169.352 121.038 169.709 121.821 170.409 122.455C171.109 123.089 171.973 123.413 172.955 123.413H173.313C174.296 123.413 175.16 123.089 175.86 122.455C176.56 121.821 176.917 121.038 176.917 120.148V119.932C176.917 119.042 176.56 118.259 175.86 117.625Z" fill="#DF6756"/>
</svg>
