<svg width="32" height="33" viewBox="0 0 32 33" fill="none" xmlns="http://www.w3.org/2000/svg">
<path d="M26.6 28.5C23.8222 28.5 21.0778 27.8947 18.3667 26.684C15.6556 25.4733 13.1889 23.7564 10.9667 21.5333C8.74445 19.3102 7.028 16.8436 5.81733 14.1333C4.60667 11.4231 4.00089 8.67867 4 5.9C4 5.5 4.13333 5.16667 4.4 4.9C4.66667 4.63333 5 4.5 5.4 4.5H10.8C11.1111 4.5 11.3889 4.60578 11.6333 4.81733C11.8778 5.02889 12.0222 5.27867 12.0667 5.56667L12.9333 10.2333C12.9778 10.5889 12.9667 10.8889 12.9 11.1333C12.8333 11.3778 12.7111 11.5889 12.5333 11.7667L9.3 15.0333C9.74444 15.8556 10.272 16.6498 10.8827 17.416C11.4933 18.1822 12.1658 18.9213 12.9 19.6333C13.5889 20.3222 14.3111 20.9613 15.0667 21.5507C15.8222 22.14 16.6222 22.6787 17.4667 23.1667L20.6 20.0333C20.8 19.8333 21.0613 19.6836 21.384 19.584C21.7067 19.4844 22.0231 19.4564 22.3333 19.5L26.9333 20.4333C27.2444 20.5222 27.5 20.6836 27.7 20.9173C27.9 21.1511 28 21.412 28 21.7V27.1C28 27.5 27.8667 27.8333 27.6 28.1C27.3333 28.3667 27 28.5 26.6 28.5Z" fill="black"/>
</svg>
