<svg width="65" height="64" viewBox="0 0 65 64" fill="none" xmlns="http://www.w3.org/2000/svg">
<g clip-path="url(#clip0_425_9883)">
<path d="M0.5 24H64.5V38H0.5V24Z" fill="#E6E7E8"/>
<path d="M54.5 9H10.5C3.873 9 0.5 13.925 0.5 20V24H64.5V20C64.5 13.925 61.127 9 54.5 9Z" fill="#FF9933"/>
<path d="M0.5 42C0.5 48.075 3.873 53 10.5 53H54.5C61.127 53 64.5 48.075 64.5 42V38H0.5V42Z" fill="#128807"/>
<path fill-rule="evenodd" clip-rule="evenodd" d="M32.81 24.583C34.0877 24.583 35.3367 24.962 36.3989 25.6721C37.4611 26.3821 38.2889 27.3913 38.7774 28.572C39.2659 29.7526 39.3932 31.0516 39.1432 32.3046C38.8932 33.5576 38.2771 34.7083 37.3729 35.611C36.4688 36.5138 35.3171 37.1281 34.0637 37.3761C32.8104 37.6242 31.5116 37.4949 30.3317 37.0045C29.1518 36.5142 28.1439 35.6849 27.4355 34.6216C26.7271 33.5583 26.35 32.3087 26.352 31.031C26.3552 29.3201 27.0369 27.6804 28.2476 26.4716C29.4583 25.2627 31.0991 24.5835 32.81 24.583ZM28.505 27.378C28.616 27.504 28.636 27.639 28.562 27.752C28.5308 27.8042 28.4824 27.8438 28.425 27.864C28.3811 27.8803 28.3338 27.8858 28.2873 27.8799C28.2408 27.8739 28.1964 27.8568 28.158 27.83C27.9842 28.0789 27.8314 28.3418 27.701 28.616C27.852 28.715 27.902 28.839 27.852 28.976C27.8252 29.0457 27.7724 29.1023 27.7046 29.1337C27.6368 29.165 27.5595 29.1687 27.489 29.144C27.417 29.288 27.258 29.896 27.256 30.024C27.3217 30.0379 27.3809 30.0735 27.424 30.125C27.4684 30.1773 27.4913 30.2445 27.488 30.313C27.469 30.501 27.353 30.581 27.176 30.588C27.148 30.769 27.151 31.375 27.179 31.494C27.3657 31.514 27.4667 31.5957 27.482 31.739C27.504 31.893 27.43 31.993 27.25 32.063C27.3033 32.3603 27.3807 32.652 27.482 32.938C27.5525 32.917 27.628 32.9195 27.697 32.945C27.764 32.974 27.817 33.024 27.845 33.093C27.8697 33.1463 27.8753 33.2027 27.862 33.262C27.8526 33.3058 27.8332 33.3469 27.8052 33.3819C27.7773 33.417 27.7416 33.4451 27.701 33.464C27.835 33.742 27.983 34.004 28.158 34.25C28.314 34.173 28.45 34.191 28.542 34.301C28.5821 34.3464 28.6051 34.4044 28.607 34.465C28.6098 34.5098 28.6019 34.5546 28.5838 34.5957C28.5657 34.6368 28.538 34.6729 28.503 34.701C28.7023 34.9343 28.9173 35.1493 29.148 35.346C29.279 35.231 29.415 35.213 29.532 35.295C29.5853 35.3323 29.621 35.381 29.639 35.441C29.651 35.4835 29.6534 35.5281 29.6462 35.5717C29.6389 35.6153 29.6221 35.6567 29.597 35.693C29.8497 35.8663 30.112 36.0177 30.384 36.147C30.4907 35.9977 30.61 35.948 30.742 35.998C30.7991 36.0185 30.8486 36.0558 30.884 36.105C30.9327 36.185 30.942 36.2723 30.912 36.367C31.2 36.469 31.49 36.547 31.79 36.6C31.849 36.431 31.951 36.352 32.087 36.362C32.15 36.367 32.207 36.386 32.257 36.429C32.327 36.493 32.3593 36.5747 32.354 36.674C32.6607 36.6967 32.9633 36.6967 33.262 36.674C33.284 36.481 33.361 36.384 33.516 36.362C33.5749 36.3536 33.6349 36.3656 33.686 36.396C33.7233 36.4174 33.7554 36.4467 33.78 36.482C33.8045 36.5173 33.8209 36.5576 33.828 36.6C34.13 36.5447 34.4227 36.4667 34.706 36.366C34.681 36.177 34.727 36.064 34.854 36.005C34.9003 35.9851 34.9508 35.9772 35.001 35.982C35.0537 35.9853 35.0993 36.0033 35.138 36.036C35.175 36.067 35.206 36.105 35.242 36.144C35.5146 36.0154 35.7761 35.8645 36.024 35.693C35.922 35.533 35.982 35.38 36.065 35.312C36.0939 35.2872 36.1275 35.2684 36.1638 35.2567C36.2001 35.245 36.2384 35.2407 36.2763 35.2439C36.3143 35.2472 36.3513 35.258 36.385 35.2757C36.4188 35.2934 36.4487 35.3176 36.473 35.347C36.704 35.149 36.921 34.934 37.115 34.703C37.002 34.574 36.98 34.438 37.063 34.321C37.0969 34.2688 37.1483 34.2305 37.208 34.213C37.2506 34.1994 37.2958 34.1958 37.3401 34.2026C37.3843 34.2094 37.4264 34.2263 37.463 34.252C37.6377 34.0007 37.79 33.7383 37.92 33.465C37.7733 33.367 37.7217 33.2523 37.765 33.121C37.7812 33.0629 37.8164 33.0118 37.865 32.976C37.9036 32.9485 37.9482 32.9305 37.9952 32.9235C38.0421 32.9166 38.09 32.9208 38.135 32.936C38.2 32.795 38.362 32.201 38.371 32.057C38.302 32.044 38.2397 32.0072 38.195 31.953C38.1718 31.9259 38.1544 31.8944 38.1439 31.8603C38.1334 31.8263 38.1301 31.7904 38.134 31.755C38.1381 31.6917 38.1643 31.6319 38.208 31.586C38.2384 31.5548 38.2753 31.5305 38.3161 31.515C38.3568 31.4994 38.4005 31.4929 38.444 31.496C38.4691 31.1935 38.4691 30.8895 38.444 30.587C38.253 30.568 38.162 30.494 38.137 30.343C38.126 30.2859 38.1344 30.2267 38.161 30.175C38.1816 30.1351 38.2112 30.1004 38.2475 30.0739C38.2837 30.0473 38.3257 30.0296 38.37 30.022C38.3176 29.7232 38.2396 29.4295 38.137 29.144C37.952 29.175 37.838 29.125 37.777 28.997C37.7612 28.9628 37.7523 28.9258 37.7509 28.8881C37.7496 28.8504 37.7557 28.8128 37.769 28.7775C37.7824 28.7423 37.8026 28.71 37.8285 28.6826C37.8544 28.6552 37.8855 28.6332 37.92 28.618C37.7905 28.3431 37.6376 28.0798 37.463 27.831C37.302 27.908 37.171 27.89 37.079 27.78C37.0384 27.7334 37.0157 27.6738 37.015 27.612C37.013 27.568 37.0213 27.5242 37.0394 27.4841C37.0575 27.4439 37.0847 27.4086 37.119 27.381C36.9213 27.15 36.7064 26.9344 36.476 26.736C36.338 26.854 36.204 26.869 36.09 26.787C36.038 26.7527 36 26.7009 35.983 26.641C35.9708 26.599 35.9682 26.5548 35.9755 26.5117C35.9827 26.4686 35.9997 26.4277 36.025 26.392C35.7757 26.2182 35.5125 26.0653 35.238 25.935C35.1353 26.0817 35.0187 26.1327 34.888 26.088C34.8302 26.0688 34.7797 26.0326 34.743 25.984C34.7166 25.945 34.6998 25.9003 34.6939 25.8536C34.688 25.8068 34.6931 25.7594 34.709 25.715C34.424 25.6109 34.1301 25.5329 33.831 25.482C33.774 25.644 33.671 25.728 33.538 25.72C33.4761 25.7168 33.4167 25.6944 33.368 25.656C33.3325 25.6258 33.3047 25.5875 33.2872 25.5444C33.2696 25.5012 33.2627 25.4544 33.267 25.408C32.9649 25.3824 32.6611 25.3827 32.359 25.409C32.3377 25.5897 32.2603 25.6913 32.127 25.714C32.0672 25.7269 32.0048 25.7192 31.95 25.692C31.9092 25.6716 31.8739 25.6418 31.8468 25.6052C31.8197 25.5685 31.8016 25.526 31.794 25.481C31.4951 25.5354 31.2011 25.614 30.915 25.716C30.947 25.893 30.897 26.009 30.775 26.072C30.7223 26.1 30.6653 26.109 30.604 26.099C30.5574 26.0928 30.5132 26.0744 30.4758 26.0458C30.4385 26.0172 30.4092 25.9794 30.391 25.936C30.22 26 29.676 26.315 29.604 26.394C29.678 26.542 29.661 26.673 29.559 26.767C29.5302 26.7925 29.4965 26.8119 29.4601 26.8241C29.4236 26.8363 29.3851 26.841 29.3467 26.838C29.3084 26.8351 29.271 26.8244 29.2369 26.8067C29.2028 26.789 29.1725 26.7646 29.148 26.735C28.9177 26.9328 28.7028 27.1477 28.505 27.378Z" fill="#010088"/>
<path fill-rule="evenodd" clip-rule="evenodd" d="M35.58 35.8271C35.568 35.8141 35.556 35.8051 35.547 35.7911C34.9656 34.9024 34.3826 34.0147 33.798 33.1281L33.758 33.0501C33.622 32.7331 33.489 32.4161 33.35 32.1001C33.3457 32.0837 33.3393 32.0679 33.331 32.0531C33.275 32.0741 33.224 32.0981 33.164 32.1211L33.184 32.1721C33.309 32.4791 33.429 32.7871 33.556 33.0941C33.59 33.1761 33.604 33.2621 33.622 33.3481C33.72 33.8071 33.812 34.2681 33.911 34.7281L34.249 36.3711C34.2512 36.3749 34.252 36.3793 34.2515 36.3836C34.251 36.388 34.249 36.392 34.246 36.3951L34.232 36.3601C33.958 35.5211 33.677 34.6831 33.402 33.8441C33.347 33.6801 33.298 33.5181 33.238 33.3541C33.21 33.2721 33.201 33.1881 33.188 33.1031C33.153 32.8651 33.123 32.6251 33.084 32.3871C33.078 32.3305 33.0706 32.2745 33.062 32.2191L33.051 32.1511C32.991 32.1571 32.936 32.1651 32.876 32.1721C32.876 32.1961 32.8773 32.2208 32.88 32.2461C32.915 32.5391 32.945 32.8331 32.987 33.1251C33.009 33.2851 32.998 33.4421 32.989 33.6021L32.968 34.0081C32.95 34.2821 32.936 34.5551 32.917 34.8281L32.887 35.3921L32.833 36.3491C32.825 36.4391 32.823 36.5311 32.814 36.6191L32.79 36.3161L32.759 35.6601L32.723 35.0751C32.7123 34.8751 32.701 34.6755 32.689 34.4761L32.667 34.0851L32.633 33.4661C32.6228 33.3569 32.6255 33.2468 32.641 33.1381C32.661 32.9895 32.6793 32.8398 32.696 32.6891C32.7153 32.5405 32.7336 32.3928 32.751 32.2461L32.756 32.1721L32.581 32.1491C32.575 32.1891 32.568 32.2288 32.56 32.2681L32.432 33.1841C32.42 33.3031 32.373 33.4131 32.333 33.5241C32.025 34.4628 31.7153 35.4008 31.404 36.3381C31.397 36.3551 31.394 36.3711 31.381 36.3871C31.3803 36.3758 31.382 36.3651 31.386 36.3551C31.5146 35.7225 31.6456 35.0901 31.779 34.4581L32.039 33.2001L32.063 33.1311C32.192 32.8141 32.316 32.4941 32.448 32.1771C32.4529 32.1585 32.4596 32.1404 32.468 32.1231L32.302 32.0541C32.295 32.0721 32.284 32.0871 32.278 32.1051L31.867 33.0601C31.8585 33.0841 31.8478 33.1072 31.835 33.1291C31.2449 34.023 30.6566 34.918 30.07 35.8141C30.0625 35.8281 30.0519 35.8401 30.039 35.8491L30.059 35.8061L31.505 32.9391C31.5176 32.9132 31.533 32.8887 31.551 32.8661L32.169 32.0371C32.182 32.0231 32.19 32.0101 32.202 31.9951C32.151 31.9581 32.11 31.9241 32.059 31.8851C32.0476 31.8978 32.0376 31.9101 32.029 31.9221C31.813 32.1941 31.5996 32.4655 31.389 32.7361C31.3663 32.7615 31.342 32.7861 31.316 32.8101C30.528 33.5151 29.74 34.2161 28.949 34.9221C28.9336 34.9361 28.9163 34.9481 28.897 34.9581L28.917 34.9311C29.565 34.2065 30.2113 33.4818 30.856 32.7571C30.8933 32.7171 30.9296 32.6761 30.965 32.6341C31.039 32.5488 31.1213 32.4721 31.212 32.4041L31.93 31.8391C31.946 31.8271 31.958 31.8141 31.976 31.8021L31.866 31.6611L31.822 31.6921L30.996 32.3091C30.9645 32.3313 30.9318 32.3517 30.898 32.3701C29.959 32.8441 29.015 33.3181 28.074 33.7921C28.056 33.8001 28.039 33.8101 28.018 33.8101L28.056 33.7831L29.812 32.6331C30.1186 32.4325 30.4243 32.2311 30.729 32.0291L30.805 31.9891C31.1243 31.8538 31.442 31.7181 31.758 31.5821C31.7726 31.5768 31.7886 31.5698 31.806 31.5611L31.739 31.3961C31.72 31.4011 31.708 31.4061 31.693 31.4111C31.369 31.5401 31.048 31.6711 30.722 31.7991C30.655 31.8241 30.582 31.8361 30.511 31.8511L28.326 32.3051C28.051 32.3641 27.771 32.4221 27.495 32.4791C27.4838 32.4816 27.4722 32.4802 27.462 32.4751C27.538 32.4505 27.6136 32.4251 27.689 32.3991C28.633 32.0885 29.5756 31.7771 30.517 31.4651C30.591 31.4401 30.67 31.4331 30.745 31.4211L31.653 31.2921L31.708 31.2801L31.688 31.1041L31.542 31.1201L30.938 31.1931L30.602 31.2341C30.5753 31.2375 30.549 31.2385 30.523 31.2371L29.887 31.2001L29.511 31.1791L28.863 31.1411L27.918 31.0891C27.69 31.0771 27.468 31.0621 27.241 31.0461C27.277 31.0431 27.317 31.0371 27.356 31.0371L28.131 30.9931L29.155 30.9351L30.003 30.8871L30.535 30.8551C30.5576 30.8551 30.58 30.8565 30.602 30.8591L31.212 30.9321L31.644 30.9841H31.688C31.693 30.9271 31.702 30.8731 31.708 30.8111C31.671 30.8031 31.629 30.7971 31.592 30.7901C31.3253 30.7528 31.059 30.7145 30.793 30.6751L30.627 30.6531C30.5964 30.6489 30.5663 30.6419 30.537 30.6321C29.742 30.3711 28.952 30.1081 28.158 29.8471L27.496 29.6271C27.4772 29.6214 27.4593 29.613 27.443 29.6021L27.582 29.6301L29.279 29.9831C29.733 30.0781 30.194 30.1721 30.648 30.2681L30.728 30.2931C31.048 30.4191 31.365 30.5491 31.688 30.6771L31.736 30.6961C31.758 30.6421 31.7813 30.5871 31.806 30.5311C31.7896 30.5216 31.7725 30.5132 31.755 30.5061C31.437 30.3715 31.1196 30.2355 30.803 30.0981L30.731 30.0611C29.834 29.4741 28.941 28.8841 28.043 28.2961C28.0309 28.2898 28.0214 28.2796 28.016 28.2671L28.052 28.2871C28.946 28.7371 29.841 29.1868 30.737 29.6361C30.885 29.7101 31.029 29.7991 31.161 29.9001C31.379 30.0691 31.601 30.2311 31.823 30.3971L31.867 30.4281L31.977 30.2891L31.938 30.2551L31.125 29.6161C31.0983 29.5941 31.0736 29.5711 31.051 29.5471C30.3423 28.7538 29.6346 27.9605 28.928 27.1671C28.9184 27.1584 28.9105 27.1478 28.905 27.1361C28.926 27.1381 28.934 27.1521 28.943 27.1611C29.371 27.5411 29.7976 27.9211 30.223 28.3011L31.325 29.2831C31.345 29.3025 31.364 29.3225 31.382 29.3431L32.013 30.1451C32.029 30.1631 32.041 30.1821 32.059 30.2061L32.204 30.0951C32.195 30.0811 32.183 30.0701 32.176 30.0571C31.9706 29.7818 31.7643 29.5068 31.557 29.2321C31.5354 29.2 31.5157 29.1666 31.498 29.1321C31.0186 28.1855 30.541 27.2388 30.065 26.2921C30.056 26.2741 30.047 26.2601 30.045 26.2411L30.069 26.2691L31.091 27.8311L31.814 28.9311C31.839 28.9731 31.867 29.0171 31.883 29.0631C32.017 29.3711 32.149 29.6795 32.279 29.9881C32.287 30.0015 32.295 30.0171 32.303 30.0351L32.469 29.9661L32.451 29.9241C32.327 29.6121 32.2023 29.3008 32.077 28.9901C32.042 28.9111 32.029 28.8291 32.012 28.7471C31.903 28.2261 31.798 27.7041 31.689 27.1821C31.582 26.6801 31.48 26.1821 31.375 25.6781C31.3736 25.6761 31.375 25.6705 31.379 25.6611L31.467 25.9281C31.781 26.8715 32.092 27.8158 32.4 28.7611C32.426 28.8351 32.435 28.9161 32.446 28.9931C32.482 29.2558 32.5206 29.5191 32.562 29.7831C32.569 29.8331 32.572 29.8831 32.582 29.9381L32.756 29.9161V29.8501L32.68 29.2231C32.665 29.1011 32.654 28.9821 32.637 28.8631C32.6273 28.7831 32.6273 28.7022 32.637 28.6221L32.66 28.2161L32.709 27.4011C32.718 27.2551 32.721 27.1071 32.73 26.9611C32.7426 26.7705 32.754 26.5791 32.764 26.3871C32.7726 26.2471 32.78 26.1071 32.786 25.9671C32.7946 25.8025 32.8063 25.6381 32.821 25.4741C32.8243 25.5188 32.827 25.5651 32.829 25.6131C32.8423 25.8138 32.8543 26.0151 32.865 26.2171L32.917 27.1331L32.948 27.6471L32.995 28.5391L33.005 28.6701C33.018 28.7861 32.995 28.9011 32.985 29.0161L32.921 29.5401C32.911 29.6391 32.896 29.7381 32.884 29.8381C32.882 29.8621 32.882 29.8881 32.875 29.9171C32.937 29.9261 32.993 29.9321 33.055 29.9401C33.064 29.8971 33.068 29.8571 33.075 29.8151C33.123 29.4905 33.1696 29.1648 33.215 28.8381C33.219 28.8141 33.229 28.7891 33.235 28.7641C33.561 27.7861 33.881 26.8071 34.205 25.8271C34.221 25.7821 34.233 25.7391 34.258 25.6961L34.247 25.7641C34.101 26.4721 33.949 27.1781 33.804 27.8841C33.7386 28.2155 33.671 28.5468 33.601 28.8781C33.596 28.9055 33.5873 28.9321 33.575 28.9571L33.189 29.9221C33.1823 29.9355 33.176 29.9511 33.17 29.9691C33.23 29.9921 33.279 30.0151 33.337 30.0381L33.36 29.9901L33.763 29.0431C33.779 29.0111 33.791 28.9801 33.812 28.9541L35.557 26.2921C35.568 26.2781 35.577 26.2641 35.594 26.2541C35.588 26.2681 35.581 26.2821 35.573 26.2961L34.138 29.1461C34.1233 29.1735 34.1073 29.1995 34.09 29.2241L33.468 30.0531L33.435 30.0981L33.577 30.2091L33.608 30.1711C33.8193 29.9011 34.032 29.6308 34.246 29.3601C34.2695 29.3296 34.296 29.3015 34.325 29.2761C35.115 28.5701 35.9056 27.8651 36.697 27.1611C36.71 27.1501 36.719 27.1391 36.74 27.1331L36.714 27.1651C36.392 27.5298 36.0673 27.8935 35.74 28.2561C35.3513 28.6908 34.964 29.1255 34.578 29.5601C34.5566 29.5821 34.535 29.6018 34.513 29.6191L33.7 30.2581L33.66 30.2901C33.698 30.3381 33.732 30.3841 33.772 30.4321L33.815 30.4001L34.648 29.7761L34.714 29.7341C35.6726 29.2528 36.6286 28.7715 37.582 28.2901C37.5966 28.2821 37.612 28.2778 37.628 28.2771C37.5853 28.3058 37.5423 28.3338 37.499 28.3611L34.907 30.0621C34.8836 30.0768 34.8596 30.0898 34.835 30.1011C34.516 30.2391 34.194 30.3751 33.878 30.5121L33.827 30.5321C33.854 30.5881 33.873 30.6411 33.897 30.6971L33.943 30.6821C34.264 30.5551 34.583 30.4221 34.907 30.2991C34.987 30.2671 35.075 30.2531 35.162 30.2351L36.635 29.9291C37.093 29.8351 37.547 29.7391 38.006 29.6441C38.0466 29.6348 38.0883 29.6261 38.131 29.6181C38.142 29.6181 38.152 29.6161 38.168 29.6221L38.028 29.6681C37.052 29.9915 36.076 30.3128 35.1 30.6321C35.026 30.6581 34.944 30.6651 34.867 30.6771L34.219 30.7701L33.986 30.8031L33.929 30.8131C33.935 30.8721 33.944 30.9271 33.948 30.9911L34.099 30.9751L34.639 30.9111C34.774 30.8941 34.915 30.8751 35.056 30.8621C35.119 30.8571 35.183 30.8631 35.248 30.8661C35.385 30.8721 35.522 30.8841 35.665 30.8901L36.473 30.9381L36.837 30.9581L37.661 31.0051C37.856 31.0171 38.057 31.0261 38.251 31.0381C38.2991 31.0407 38.3471 31.0451 38.395 31.0511L38.249 31.0631L37.644 31.0961L36.895 31.1401L36.33 31.1701C36.07 31.1861 35.805 31.2011 35.543 31.2181C35.399 31.2241 35.251 31.2381 35.106 31.2391C35.023 31.2411 34.936 31.2251 34.855 31.2161L34.322 31.1521L33.981 31.1111H33.948C33.9426 31.1685 33.9363 31.2271 33.929 31.2871L34.987 31.4401C35.091 31.4531 35.182 31.4941 35.28 31.5251L38.124 32.4641C38.1428 32.4668 38.1605 32.4748 38.175 32.4871C38.1516 32.4831 38.128 32.4798 38.104 32.4771L35.634 31.9621L34.982 31.8261C34.961 31.8201 34.933 31.8121 34.91 31.8011C34.5893 31.6738 34.2673 31.5451 33.944 31.4151L33.901 31.4001L33.828 31.5631L33.881 31.5881C34.1996 31.7235 34.5173 31.8595 34.834 31.9961C34.8586 32.0068 34.884 32.0208 34.91 32.0381L37.572 33.7821C37.585 33.7921 37.602 33.8041 37.613 33.8231C37.599 33.8165 37.586 33.8095 37.574 33.8021L36.187 33.1061C35.7023 32.8608 35.2153 32.6155 34.726 32.3701C34.6946 32.355 34.6654 32.3358 34.639 32.3131L33.811 31.6951L33.772 31.6671C33.734 31.7131 33.7 31.7581 33.66 31.8061L33.698 31.8361C33.966 32.0501 34.239 32.2641 34.508 32.4771C34.5384 32.4993 34.5662 32.5247 34.591 32.5531L36.71 34.9241C36.7194 34.9355 36.7263 34.9488 36.73 34.9631C36.719 34.9511 36.704 34.9431 36.693 34.9341C35.8976 34.2241 35.1016 33.5148 34.305 32.8061C34.2869 32.7901 34.2707 32.772 34.257 32.7521L33.609 31.9261C33.5996 31.9135 33.5893 31.9008 33.578 31.8881C33.532 31.9261 33.487 31.9601 33.441 32.0001C33.4456 32.0128 33.4526 32.0251 33.462 32.0371L34.091 32.8751C34.1081 32.9 34.1241 32.9257 34.139 32.9521L35.568 35.7931C35.5761 35.8058 35.5812 35.8202 35.583 35.8351H35.58V35.8271Z" fill="#010088"/>
<path fill-rule="evenodd" clip-rule="evenodd" d="M35.57 35.8269L35.594 35.8569C35.589 35.8589 35.589 35.8619 35.583 35.8629C35.581 35.8489 35.574 35.8399 35.572 35.8269H35.57Z" fill="#010088"/>
</g>
<defs>
<clipPath id="clip0_425_9883">
<rect width="64" height="64" fill="white" transform="translate(0.5)"/>
</clipPath>
</defs>
</svg>
