<svg width="65" height="64" viewBox="0 0 65 64" fill="none" xmlns="http://www.w3.org/2000/svg">
<path d="M29.8333 15.9999H37.8333L46.6067 7.19993C46.8546 6.94999 47.1495 6.7516 47.4745 6.61622C47.7994 6.48083 48.148 6.41113 48.5 6.41113C48.852 6.41113 49.2006 6.48083 49.5256 6.61622C49.8505 6.7516 50.1454 6.94999 50.3933 7.19993L57.2734 14.1066C57.77 14.6062 58.0488 15.2821 58.0488 15.9866C58.0488 16.6911 57.77 17.367 57.2734 17.8666L51.1667 23.9999H29.8333V29.3333C29.8333 30.0405 29.5524 30.7188 29.0523 31.2189C28.5522 31.719 27.8739 31.9999 27.1667 31.9999C26.4594 31.9999 25.7812 31.719 25.2811 31.2189C24.781 30.7188 24.5 30.0405 24.5 29.3333V21.3333C24.5 19.9188 25.0619 18.5622 26.0621 17.562C27.0623 16.5618 28.4189 15.9999 29.8333 15.9999ZM13.8333 29.3333V39.9999L7.72668 46.1066C7.23001 46.6062 6.95123 47.2821 6.95123 47.9866C6.95123 48.6911 7.23001 49.367 7.72668 49.8666L14.6067 56.7733C14.8546 57.0232 15.1495 57.2216 15.4745 57.357C15.7994 57.4924 16.148 57.5621 16.5 57.5621C16.852 57.5621 17.2006 57.4924 17.5256 57.357C17.8505 57.2216 18.1454 57.0232 18.3933 56.7733L29.8333 45.3333H40.5C41.2073 45.3333 41.8855 45.0523 42.3856 44.5522C42.8857 44.0521 43.1667 43.3738 43.1667 42.6666V39.9999H45.8333C46.5406 39.9999 47.2189 39.719 47.719 39.2189C48.2191 38.7188 48.5 38.0405 48.5 37.3333V34.6666H51.1667C51.8739 34.6666 52.5522 34.3856 53.0523 33.8855C53.5524 33.3855 53.8334 32.7072 53.8334 31.9999V29.3333H35.1667V31.9999C35.1667 33.4144 34.6048 34.771 33.6046 35.7712C32.6044 36.7714 31.2478 37.3333 29.8333 37.3333H24.5C23.0855 37.3333 21.729 36.7714 20.7288 35.7712C19.7286 34.771 19.1667 33.4144 19.1667 31.9999V23.9999L13.8333 29.3333Z" fill="#8E3300"/>
</svg>
