<svg width="89" height="84" viewBox="0 0 89 84" fill="none" xmlns="http://www.w3.org/2000/svg">
<path fill-rule="evenodd" clip-rule="evenodd" d="M78.0629 6.11212V51.6471H79.6449C84.6097 51.6471 88.6527 48.0846 88.6527 43.7057V14.0497C88.6527 9.67082 84.6136 6.10832 79.6449 6.10832L78.0629 6.11212ZM32.6799 53.4361L17.4259 40.4321C14.0587 38.2446 10.3712 38.7055 8.6017 40.2603C7.85951 40.9126 7.1369 42.0298 7.83998 43.6822L32.36 68.4402C32.5475 68.6316 32.653 68.8894 32.653 69.1589L32.6569 83.2249H65.4579L65.4618 71.8459L67.329 53.6779H33.329C33.0907 53.6779 32.8635 53.5924 32.6799 53.4361ZM38.6213 17.5261C40.9924 21.0964 46.1916 21.0964 48.5627 17.5261C50.9338 21.0964 56.133 21.0964 58.5041 17.5261C61.7736 22.4519 69.4531 20.1159 69.4531 14.1823V6.11202H76.0469V51.647H33.6989L18.5779 38.764C11.7146 34.264 3.2809 38.7015 6.0859 44.6976L12.8828 51.6468H9.0078C4.043 51.6468 0 48.0843 0 43.7054L0.00390577 14.0494C0.00390577 9.67052 4.04301 6.10802 9.01171 6.10802H27.6757V14.1783C27.6718 20.1158 35.3521 22.4518 38.6213 17.5261ZM6.8283 24.7175C6.8283 23.3816 4.8127 23.3816 4.8127 24.7175V33.0378C4.8127 34.3737 6.8283 34.3737 6.8283 33.0378V24.7175ZM37.6133 14.1825V3.94052C37.6133 -1.31338 29.6875 -1.31338 29.6875 3.94052V14.1825C29.6875 19.4403 37.6133 19.4403 37.6133 14.1825ZM47.5547 14.1825V3.94052C47.5547 -1.31338 39.6289 -1.31338 39.6289 3.94052V14.1825C39.6289 19.4403 47.5547 19.4403 47.5547 14.1825ZM57.4961 14.1825V3.94052C57.4961 -1.31338 49.5703 -1.31338 49.5703 3.94052V14.1825C49.5703 19.4403 57.4961 19.4403 57.4961 14.1825ZM63.4766 18.1786C65.6602 18.1786 67.4375 16.3856 67.4375 14.1864V3.94042C67.4375 -1.31348 59.5117 -1.31348 59.5117 3.94042V14.1824C59.5117 16.3855 61.2891 18.1786 63.4766 18.1786Z" fill="#F4512F"/>
</svg>
