<svg width="113" height="62" viewBox="0 0 113 62" fill="none" xmlns="http://www.w3.org/2000/svg">
<path d="M53.0186 56.5448L48.8851 58.7654C48.8483 59.2306 48.8989 59.9548 49.3679 60.4728C50.5817 61.8108 52.1451 61.2977 52.2187 61.2689C52.2784 61.2449 53.4647 60.8996 55.4419 60.137C55.5246 59.4848 55.5338 58.4536 54.9453 57.7294C54.2142 56.8566 53.4141 56.5976 53.0142 56.5256L53.0186 56.5448Z" fill="#F4512F"/>
<path d="M51.0882 51.1167C50.0996 49.7545 48.311 49.5339 47.6167 49.4956L40.5909 54.0375C40.4392 54.6897 40.3794 56.0998 42.214 57.3419C43.5107 58.2004 45.1705 57.7208 46.1821 57.27L51.7272 54.2868C51.8468 53.625 51.9387 52.2965 51.0789 51.1071L51.0882 51.1167Z" fill="#F4512F"/>
<path d="M45.7461 43.1013C43.9437 40.8664 41.1297 41.8016 41.001 41.8352H40.955L33.8925 47.0533C33.6902 47.2644 32.0671 49.4946 34.15 51.6719C36.0213 53.6623 38.1779 52.5544 38.7527 52.1995L46.252 47.3507C46.4635 46.5258 46.8405 44.5018 45.7462 43.1158L45.7461 43.1013Z" fill="#F4512F"/>
<path d="M37.8683 35.9887C36.0107 34.1614 34.36 34.9576 34.1026 35.0919L26.5113 40.1757C26.1711 40.5689 25.1825 42.0654 27.1918 44.5593C28.7689 46.4968 30.5713 46.0557 31.5461 45.6048L39.4684 39.7584C39.4822 38.9623 39.2937 37.3891 37.8775 35.9887L37.8683 35.9887Z" fill="#F4512F"/>
<path d="M104.057 0.0908203L88.3184 6.49843C89.3667 11.9852 90.6725 17.4766 92.2358 22.8293C93.7072 27.8748 95.413 32.8962 97.3212 37.7838L113 33.9518L104.043 0.0916798L104.057 0.0908203Z" fill="#F4512F"/>
<path d="M86.5656 10.2681L83.1171 11.3136C82.9056 11.3759 82.6941 11.3759 82.5055 11.3376L64.8634 7.01636L51.6447 11.2273L42.2051 21.2319C45.065 22.1048 50.7252 23.1455 54.2561 19.4045C54.4906 19.1599 54.8078 19.0257 55.1251 19.0257H64.2842C64.5555 19.0257 64.813 19.112 65.0383 19.2847L87.6607 37.5911L89.086 36.7661C89.178 36.7182 89.2746 36.6798 89.3665 36.6414L93.7944 35.476C92.3459 31.5576 91.0402 27.5816 89.8769 23.5769C88.6079 19.1934 87.4998 14.7474 86.5572 10.2443L86.5656 10.2681Z" fill="#F4512F"/>
<path d="M86.1065 39.6245L63.8701 21.6397H55.6168C49.5428 27.4957 39.8544 23.1888 39.446 23.0018C39.0598 22.8292 38.7885 22.4599 38.7149 22.0426C38.6459 21.611 38.7609 21.1841 39.046 20.8628L50.1087 9.13639C50.2512 8.97811 50.4259 8.86781 50.6283 8.80546L52.2192 8.28748L48.1684 6.99731L30.5262 11.3185C30.4435 11.3329 30.3377 11.3425 30.2549 11.3425C30.1492 11.3425 30.0205 11.3281 29.9147 11.2946L26.4662 10.249C25.5236 14.743 24.4201 19.1985 23.1465 23.5816C21.9832 27.5863 20.6635 31.5479 19.229 35.4807L23.6568 36.6461C23.7994 36.6845 23.9143 36.7564 24.0201 36.8284L25.4225 37.7972L32.816 32.862C32.816 32.862 32.839 32.8381 32.8528 32.8381C32.9953 32.7517 36.2185 30.8142 39.552 34.0659C41.2716 35.7493 41.7866 37.6629 41.8924 39.0153C43.4695 38.881 45.8236 39.164 47.6261 41.4086C49.0975 43.2359 49.0837 45.5091 48.8492 47.0295C50.1182 47.2645 51.8747 47.9024 53.0518 49.5331C54.2518 51.1781 54.3714 52.9576 54.2518 54.1756C55.0059 54.4442 55.9485 54.9862 56.8083 56.0173C57.9624 57.3938 58.0314 59.1251 57.9164 60.2763C59.8246 61.0149 60.9511 61.3314 60.9649 61.3458C61.0844 61.3842 62.6707 61.8974 63.8708 60.5593C64.3996 59.9837 64.3996 59.1828 64.3536 58.7319L57.7601 55.1973C57.1485 54.8663 56.914 54.0654 57.2175 53.4275C57.5118 52.7896 58.2658 52.5306 58.8774 52.852L67.8343 57.6673C68.8091 57.9598 70.023 58.1085 71.0253 57.4466C72.8737 56.2045 72.8139 54.7944 72.6484 54.1422L63.0892 47.8306C62.5144 47.4517 62.3351 46.6411 62.6891 46.0369C63.0432 45.423 63.8065 45.2407 64.395 45.6196L74.4692 52.2766C75.0117 52.6219 77.1866 53.749 79.0948 51.749C81.2466 49.4901 79.5408 47.327 79.3293 47.1065L67.6274 38.4496C67.0756 38.0323 66.9331 37.2218 67.3193 36.6222C67.7193 36.0323 68.4826 35.8837 69.0482 36.3009L81.7478 45.6916C82.7226 46.1328 84.5019 46.5165 86.0423 44.622C88.1941 41.9842 86.9389 40.4495 86.6538 40.1665C86.594 40.1042 86.1021 39.6006 86.1021 39.6006L86.1065 39.6245Z" fill="#F4512F"/>
<path d="M24.6957 6.49867L8.95691 0.0910645L0 33.9511L15.6788 37.7832C17.5961 32.896 19.2928 27.8746 20.7641 22.8287C22.3182 17.4858 23.6241 11.9896 24.6816 6.49781L24.6957 6.49867Z" fill="#F4512F"/>
</svg>
