<svg width="65" height="64" viewBox="0 0 65 64" fill="none" xmlns="http://www.w3.org/2000/svg">
<path d="M12.5 8C12.5 5.87827 13.3429 3.84344 14.8431 2.34315C16.3434 0.842855 18.3783 0 20.5 0L44.5 0C46.6217 0 48.6566 0.842855 50.1569 2.34315C51.6571 3.84344 52.5 5.87827 52.5 8V56C52.5 58.1217 51.6571 60.1566 50.1569 61.6569C48.6566 63.1571 46.6217 64 44.5 64H20.5C18.3783 64 16.3434 63.1571 14.8431 61.6569C13.3429 60.1566 12.5 58.1217 12.5 56V8ZM36.5 52C36.5 50.9391 36.0786 49.9217 35.3284 49.1716C34.5783 48.4214 33.5609 48 32.5 48C31.4391 48 30.4217 48.4214 29.6716 49.1716C28.9214 49.9217 28.5 50.9391 28.5 52C28.5 53.0609 28.9214 54.0783 29.6716 54.8284C30.4217 55.5786 31.4391 56 32.5 56C33.5609 56 34.5783 55.5786 35.3284 54.8284C36.0786 54.0783 36.5 53.0609 36.5 52Z" fill="#8E3300"/>
</svg>
