<svg width="38" height="38" viewBox="0 0 38 38" fill="none" xmlns="http://www.w3.org/2000/svg">
<path d="M16.264 5.86626C16.4293 6.13074 16.5409 6.42519 16.5924 6.7328C16.6439 7.04041 16.6343 7.35515 16.5642 7.65905C16.4941 7.96295 16.3648 8.25007 16.1837 8.504C16.0026 8.75793 15.7732 8.97371 15.5088 9.13901C12.6181 10.9395 10.3218 13.5514 8.90625 16.6488C10.3357 16.5292 11.768 16.8439 13.0157 17.5518C14.2634 18.2596 15.2684 19.3275 15.8991 20.6158C16.5299 21.9042 16.7572 23.3529 16.5511 24.7725C16.345 26.1921 15.7153 27.5164 14.7442 28.5722C13.7731 29.6281 12.506 30.3662 11.1086 30.69C9.71113 31.0139 8.24848 30.9084 6.91198 30.3873C5.57549 29.8663 4.42739 28.954 3.61789 27.7697C2.8084 26.5855 2.37521 25.1845 2.375 23.75V23.6859C2.37758 23.502 2.3855 23.3183 2.39875 23.1349C2.42012 22.7786 2.46288 22.2799 2.546 21.6671C2.71225 20.4488 3.03762 18.7696 3.6955 16.8839C5.0065 13.1076 7.66175 8.44076 12.9912 5.11101C13.2557 4.9457 13.5502 4.83411 13.8578 4.78261C14.1654 4.7311 14.4801 4.74069 14.784 4.81082C15.0879 4.88095 15.3751 5.01026 15.629 5.19135C15.8829 5.37244 16.0987 5.60177 16.264 5.86626ZM32.889 5.86626C33.0543 6.13074 33.1659 6.42519 33.2174 6.7328C33.2689 7.04041 33.2593 7.35515 33.1892 7.65905C33.1191 7.96295 32.9897 8.25007 32.8087 8.504C32.6276 8.75793 32.3982 8.97371 32.1337 9.13901C29.2431 10.9395 26.9468 13.5514 25.5312 16.6488C26.9607 16.5292 28.393 16.8439 29.6407 17.5518C30.8884 18.2596 31.8934 19.3275 32.5241 20.6158C33.1549 21.9042 33.3822 23.3529 33.1761 24.7725C32.97 26.1921 32.3403 27.5164 31.3692 28.5722C30.3981 29.6281 29.131 30.3662 27.7336 30.69C26.3361 31.0139 24.8735 30.9084 23.537 30.3873C22.2005 29.8663 21.0524 28.954 20.2429 27.7697C19.4334 26.5855 19.0002 25.1845 19 23.75V23.6859C19.0026 23.502 19.0105 23.3183 19.0238 23.1349C19.0451 22.7786 19.0879 22.2799 19.171 21.6671C19.3372 20.4488 19.6626 18.7696 20.3205 16.8839C21.6315 13.1076 24.2868 8.44076 29.6163 5.11101C29.8807 4.9457 30.1752 4.83411 30.4828 4.78261C30.7904 4.7311 31.1051 4.74069 31.409 4.81082C31.7129 4.88095 32.0001 5.01026 32.254 5.19135C32.5079 5.37244 32.7237 5.60177 32.889 5.86626Z" fill="white"/>
</svg>
